<svg width="32" height="32" viewBox="0 0 32 32" fill="none" xmlns="http://www.w3.org/2000/svg">
<path fill-rule="evenodd" clip-rule="evenodd" d="M9.95325 1.4215C11.5173 1.3495 12.0159 1.3335 15.9999 1.3335C19.9839 1.3335 20.4826 1.35083 22.0453 1.4215C23.6079 1.49216 24.6746 1.7415 25.6079 2.10283C26.5853 2.47216 27.4719 3.0495 28.2053 3.79616C28.9519 4.52816 29.5279 5.4135 29.8959 6.39216C30.2586 7.3255 30.5066 8.39216 30.5786 9.95216C30.6506 11.5188 30.6666 12.0175 30.6666 16.0002C30.6666 19.9842 30.6493 20.4828 30.5786 22.0468C30.5079 23.6068 30.2586 24.6735 29.8959 25.6068C29.5279 26.5856 28.951 27.4724 28.2053 28.2055C27.4719 28.9522 26.5853 29.5282 25.6079 29.8962C24.6746 30.2588 23.6079 30.5068 22.0479 30.5788C20.4826 30.6508 19.9839 30.6668 15.9999 30.6668C12.0159 30.6668 11.5173 30.6495 9.95325 30.5788C8.39325 30.5082 7.32659 30.2588 6.39325 29.8962C5.41448 29.5281 4.52768 28.9512 3.79459 28.2055C3.04843 27.4731 2.471 26.5867 2.10259 25.6082C1.74125 24.6748 1.49325 23.6082 1.42125 22.0482C1.34925 20.4815 1.33325 19.9828 1.33325 16.0002C1.33325 12.0162 1.35059 11.5175 1.42125 9.95483C1.49192 8.39216 1.74125 7.3255 2.10259 6.39216C2.47155 5.4136 3.04941 4.52725 3.79592 3.79483C4.52797 3.04883 5.41388 2.47142 6.39192 2.10283C7.32525 1.7415 8.39192 1.4935 9.95192 1.4215H9.95325ZM21.9266 4.0615C20.3799 3.99083 19.9159 3.97616 15.9999 3.97616C12.0839 3.97616 11.6199 3.99083 10.0733 4.0615C8.64259 4.12683 7.86659 4.3655 7.34925 4.56683C6.66525 4.8335 6.17592 5.1495 5.66259 5.66283C5.17598 6.13623 4.80149 6.71254 4.56659 7.3495C4.36525 7.86683 4.12659 8.64283 4.06125 10.0735C3.99059 11.6202 3.97592 12.0842 3.97592 16.0002C3.97592 19.9162 3.99059 20.3802 4.06125 21.9268C4.12659 23.3575 4.36525 24.1335 4.56659 24.6508C4.80125 25.2868 5.17592 25.8642 5.66259 26.3375C6.13592 26.8242 6.71325 27.1988 7.34925 27.4335C7.86659 27.6348 8.64259 27.8735 10.0733 27.9388C11.6199 28.0095 12.0826 28.0242 15.9999 28.0242C19.9173 28.0242 20.3799 28.0095 21.9266 27.9388C23.3573 27.8735 24.1333 27.6348 24.6506 27.4335C25.3346 27.1668 25.8239 26.8508 26.3373 26.3375C26.8239 25.8642 27.1986 25.2868 27.4333 24.6508C27.6346 24.1335 27.8733 23.3575 27.9386 21.9268C28.0093 20.3802 28.0239 19.9162 28.0239 16.0002C28.0239 12.0842 28.0093 11.6202 27.9386 10.0735C27.8733 8.64283 27.6346 7.86683 27.4333 7.3495C27.1666 6.6655 26.8506 6.17616 26.3373 5.66283C25.8638 5.17626 25.2875 4.80178 24.6506 4.56683C24.1333 4.3655 23.3573 4.12683 21.9266 4.0615V4.0615ZM14.1266 20.5215C15.1728 20.957 16.3378 21.0158 17.4225 20.6878C18.5072 20.3598 19.4444 19.6654 20.0741 18.7232C20.7037 17.7809 20.9867 16.6493 20.8746 15.5216C20.7626 14.3939 20.2626 13.3401 19.4599 12.5402C18.9482 12.0288 18.3295 11.6372 17.6484 11.3937C16.9672 11.1501 16.2405 11.0606 15.5206 11.1317C14.8007 11.2027 14.1055 11.4324 13.485 11.8043C12.8645 12.1763 12.3342 12.6812 11.9323 13.2826C11.5304 13.8841 11.2668 14.5672 11.1606 15.2828C11.0544 15.9983 11.1081 16.7286 11.318 17.4209C11.5278 18.1132 11.8886 18.7503 12.3742 19.2865C12.8599 19.8226 13.4584 20.2444 14.1266 20.5215ZM10.6693 10.6695C11.3693 9.96946 12.2003 9.41417 13.115 9.03531C14.0296 8.65646 15.0099 8.46146 15.9999 8.46146C16.9899 8.46146 17.9702 8.65646 18.8849 9.03531C19.7995 9.41417 20.6306 9.96946 21.3306 10.6695C22.0306 11.3695 22.5859 12.2006 22.9648 13.1152C23.3436 14.0299 23.5386 15.0102 23.5386 16.0002C23.5386 16.9902 23.3436 17.9705 22.9648 18.8851C22.5859 19.7997 22.0306 20.6308 21.3306 21.3308C19.9168 22.7446 17.9993 23.5389 15.9999 23.5389C14.0005 23.5389 12.083 22.7446 10.6693 21.3308C9.25547 19.917 8.46122 17.9996 8.46122 16.0002C8.46122 14.0008 9.25547 12.0833 10.6693 10.6695V10.6695ZM25.2106 9.58416C25.3841 9.42052 25.5229 9.22374 25.619 9.00546C25.715 8.78719 25.7663 8.55185 25.7698 8.3134C25.7733 8.07495 25.7289 7.83823 25.6392 7.61724C25.5496 7.39626 25.4165 7.19551 25.2479 7.02688C25.0792 6.85825 24.8785 6.72517 24.6575 6.63552C24.4365 6.54587 24.1998 6.50146 23.9613 6.50494C23.7229 6.50842 23.4876 6.5597 23.2693 6.65576C23.051 6.75181 22.8542 6.89069 22.6906 7.06416C22.3723 7.40154 22.1981 7.84966 22.2049 8.3134C22.2116 8.77715 22.3988 9.22 22.7268 9.54795C23.0547 9.87591 23.4976 10.0631 23.9613 10.0699C24.4251 10.0767 24.8732 9.90242 25.2106 9.58416V9.58416Z" fill="#52B5EA"/>
</svg>
