<svg width="62" height="54" viewBox="0 0 62 54" fill="none" xmlns="http://www.w3.org/2000/svg">
<path d="M2.6665 27.9917H19.0998C23.4348 27.9917 26.4099 31.2784 26.4099 35.3017V44.4252C26.4099 48.4485 23.4348 51.735 19.0998 51.735H9.97655C5.95322 51.735 2.6665 48.4485 2.6665 44.4252V27.9917" stroke="#52B5EA" stroke-width="4.5" stroke-linecap="round" stroke-linejoin="round"/>
<path d="M2.6665 27.9916C2.6665 10.85 5.86825 8.01679 15.5016 2.29346" stroke="#52B5EA" stroke-width="4.5" stroke-linecap="round" stroke-linejoin="round"/>
<path d="M35.6182 27.9917H52.0515C56.3865 27.9917 59.3615 31.2784 59.3615 35.3017V44.4252C59.3615 48.4485 56.3865 51.735 52.0515 51.735H42.9282C38.9049 51.735 35.6182 48.4485 35.6182 44.4252V27.9917" stroke="#52B5EA" stroke-width="4.5" stroke-linecap="round" stroke-linejoin="round"/>
<path d="M35.6182 27.9916C35.6182 10.85 38.8197 8.01679 48.4531 2.29346" stroke="#52B5EA" stroke-width="4.5" stroke-linecap="round" stroke-linejoin="round"/>
</svg>
