<svg width="30" height="30" viewBox="0 0 30 30" fill="none" xmlns="http://www.w3.org/2000/svg">
<path fill-rule="evenodd" clip-rule="evenodd" d="M8.95325 0.421496C10.5173 0.349496 11.0159 0.333496 14.9999 0.333496C18.9839 0.333496 19.4826 0.350829 21.0453 0.421496C22.6079 0.492163 23.6746 0.741496 24.6079 1.10283C25.5853 1.47216 26.4719 2.0495 27.2053 2.79616C27.9519 3.52816 28.5279 4.4135 28.8959 5.39216C29.2586 6.3255 29.5066 7.39216 29.5786 8.95216C29.6506 10.5188 29.6666 11.0175 29.6666 15.0002C29.6666 18.9842 29.6493 19.4828 29.5786 21.0468C29.5079 22.6068 29.2586 23.6735 28.8959 24.6068C28.5279 25.5856 27.951 26.4724 27.2053 27.2055C26.4719 27.9522 25.5853 28.5282 24.6079 28.8962C23.6746 29.2588 22.6079 29.5068 21.0479 29.5788C19.4826 29.6508 18.9839 29.6668 14.9999 29.6668C11.0159 29.6668 10.5173 29.6495 8.95325 29.5788C7.39325 29.5082 6.32659 29.2588 5.39325 28.8962C4.41448 28.5281 3.52768 27.9512 2.79459 27.2055C2.04843 26.4731 1.471 25.5867 1.10259 24.6082C0.741252 23.6748 0.493252 22.6082 0.421252 21.0482C0.349252 19.4815 0.333252 18.9828 0.333252 15.0002C0.333252 11.0162 0.350585 10.5175 0.421252 8.95483C0.491919 7.39216 0.741252 6.3255 1.10259 5.39216C1.47155 4.4136 2.04941 3.52725 2.79592 2.79483C3.52797 2.04883 4.41388 1.47142 5.39192 1.10283C6.32525 0.741496 7.39192 0.493496 8.95192 0.421496H8.95325ZM20.9266 3.0615C19.3799 2.99083 18.9159 2.97616 14.9999 2.97616C11.0839 2.97616 10.6199 2.99083 9.07325 3.0615C7.64259 3.12683 6.86659 3.3655 6.34925 3.56683C5.66525 3.8335 5.17592 4.1495 4.66259 4.66283C4.17598 5.13623 3.80149 5.71254 3.56659 6.3495C3.36525 6.86683 3.12659 7.64283 3.06125 9.0735C2.99059 10.6202 2.97592 11.0842 2.97592 15.0002C2.97592 18.9162 2.99059 19.3802 3.06125 20.9268C3.12659 22.3575 3.36525 23.1335 3.56659 23.6508C3.80125 24.2868 4.17592 24.8642 4.66259 25.3375C5.13592 25.8242 5.71325 26.1988 6.34925 26.4335C6.86659 26.6348 7.64259 26.8735 9.07325 26.9388C10.6199 27.0095 11.0826 27.0242 14.9999 27.0242C18.9173 27.0242 19.3799 27.0095 20.9266 26.9388C22.3573 26.8735 23.1333 26.6348 23.6506 26.4335C24.3346 26.1668 24.8239 25.8508 25.3373 25.3375C25.8239 24.8642 26.1986 24.2868 26.4333 23.6508C26.6346 23.1335 26.8733 22.3575 26.9386 20.9268C27.0093 19.3802 27.0239 18.9162 27.0239 15.0002C27.0239 11.0842 27.0093 10.6202 26.9386 9.0735C26.8733 7.64283 26.6346 6.86683 26.4333 6.3495C26.1666 5.6655 25.8506 5.17616 25.3373 4.66283C24.8638 4.17626 24.2875 3.80178 23.6506 3.56683C23.1333 3.3655 22.3573 3.12683 20.9266 3.0615ZM13.1266 19.5215C14.1728 19.957 15.3378 20.0158 16.4225 19.6878C17.5072 19.3598 18.4444 18.6654 19.0741 17.7232C19.7037 16.7809 19.9867 15.6493 19.8746 14.5216C19.7626 13.3939 19.2626 12.3401 18.4599 11.5402C17.9482 11.0288 17.3295 10.6372 16.6484 10.3937C15.9672 10.1501 15.2405 10.0606 14.5206 10.1317C13.8007 10.2027 13.1055 10.4324 12.485 10.8043C11.8645 11.1763 11.3342 11.6812 10.9323 12.2826C10.5304 12.8841 10.2668 13.5672 10.1606 14.2828C10.0544 14.9983 10.1081 15.7286 10.318 16.4209C10.5278 17.1131 10.8886 17.7503 11.3742 18.2865C11.8599 18.8226 12.4584 19.2444 13.1266 19.5215ZM9.66925 9.6695C10.3693 8.96946 11.2003 8.41417 12.115 8.03531C13.0296 7.65646 14.0099 7.46146 14.9999 7.46146C15.9899 7.46146 16.9702 7.65646 17.8849 8.03531C18.7995 8.41417 19.6306 8.96946 20.3306 9.6695C21.0306 10.3695 21.5859 11.2006 21.9648 12.1152C22.3436 13.0299 22.5386 14.0102 22.5386 15.0002C22.5386 15.9902 22.3436 16.9705 21.9648 17.8851C21.5859 18.7997 21.0306 19.6308 20.3306 20.3308C18.9168 21.7446 16.9993 22.5389 14.9999 22.5389C13.0005 22.5389 11.083 21.7446 9.66925 20.3308C8.25547 18.917 7.46122 16.9996 7.46122 15.0002C7.46122 13.0008 8.25547 11.0833 9.66925 9.6695ZM24.2106 8.58416C24.3841 8.42052 24.5229 8.22374 24.619 8.00546C24.715 7.78719 24.7663 7.55185 24.7698 7.3134C24.7733 7.07495 24.7289 6.83823 24.6392 6.61724C24.5496 6.39626 24.4165 6.19551 24.2479 6.02688C24.0792 5.85825 23.8785 5.72517 23.6575 5.63552C23.4365 5.54587 23.1998 5.50146 22.9613 5.50494C22.7229 5.50842 22.4876 5.5597 22.2693 5.65576C22.051 5.75181 21.8542 5.89069 21.6906 6.06416C21.3723 6.40154 21.1981 6.84966 21.2049 7.3134C21.2116 7.77715 21.3988 8.22 21.7268 8.54795C22.0547 8.87591 22.4976 9.06313 22.9613 9.06989C23.4251 9.07666 23.8732 8.90242 24.2106 8.58416Z" fill="#52B5EA"/>
</svg>
