<svg width="28" height="28" viewBox="0 0 28 28" fill="none" xmlns="http://www.w3.org/2000/svg">
<path d="M23.4641 22.0956C23.4641 22.4929 23.3759 22.9012 23.1882 23.2985C23.0006 23.6958 22.7578 24.0711 22.4378 24.4242C21.897 25.0202 21.301 25.4506 20.6278 25.7266C19.9656 26.0025 19.2482 26.1459 18.4757 26.1459C17.3499 26.1459 16.147 25.8811 14.8778 25.3403C13.6086 24.7995 12.3394 24.0711 11.0812 23.1551C9.81203 22.228 8.60906 21.2016 7.46127 20.0648C6.32451 18.917 5.29812 17.7141 4.38209 16.4559C3.4771 15.1978 2.74869 13.9396 2.21894 12.6925C1.68919 11.4343 1.42432 10.2313 1.42432 9.08356C1.42432 8.33308 1.55675 7.61571 1.82163 6.95352C2.0865 6.28029 2.50589 5.66225 3.09082 5.11043C3.79716 4.41513 4.56971 4.073 5.38641 4.073C5.69543 4.073 6.00445 4.13922 6.28036 4.27165C6.56731 4.40409 6.82115 4.60275 7.01981 4.8897L9.58027 8.49862C9.77892 8.77453 9.9224 9.02837 10.0217 9.27118C10.1211 9.50294 10.1762 9.73471 10.1762 9.9444C10.1762 10.2093 10.099 10.4742 9.94447 10.728C9.801 10.9818 9.5913 11.2467 9.32643 11.5116L8.48766 12.3835C8.36626 12.5049 8.31107 12.6483 8.31107 12.8249C8.31107 12.9132 8.32211 12.9905 8.34418 13.0788C8.37729 13.167 8.4104 13.2333 8.43248 13.2995C8.63113 13.6637 8.97326 14.1383 9.45887 14.7122C9.95551 15.2861 10.4853 15.871 11.0592 16.4559C11.6551 17.0409 12.229 17.5816 12.814 18.0783C13.3878 18.5639 13.8624 18.895 14.2377 19.0936C14.2928 19.1157 14.3591 19.1488 14.4363 19.1819C14.5246 19.215 14.6129 19.2261 14.7122 19.2261C14.8998 19.2261 15.0433 19.1599 15.1647 19.0385L16.0035 18.2107C16.2794 17.9348 16.5443 17.7251 16.7981 17.5927C17.052 17.4382 17.3058 17.3609 17.5817 17.3609C17.7914 17.3609 18.0121 17.4051 18.2549 17.5044C18.4977 17.6037 18.7516 17.7472 19.0275 17.9348L22.6806 20.5284C22.9675 20.727 23.1662 20.9588 23.2876 21.2347C23.3979 21.5106 23.4641 21.7865 23.4641 22.0956Z" stroke="#52B5EA" stroke-width="1.58925" stroke-miterlimit="10"/>
<path d="M19.6347 11.7986C19.6347 11.1364 19.116 10.121 18.3435 9.29328C17.6371 8.53176 16.699 7.93579 15.772 7.93579" stroke="#52B5EA" stroke-width="1.58925" stroke-linecap="round" stroke-linejoin="round"/>
<path d="M23.4975 11.7985C23.4975 7.52741 20.0431 4.073 15.772 4.073" stroke="#52B5EA" stroke-width="1.58925" stroke-linecap="round" stroke-linejoin="round"/>
</svg>
